<?xml version="1.0" encoding="UTF-8"?>
<svg id="Layer_1" xmlns="http://www.w3.org/2000/svg" version="1.1" viewBox="0 0 460.8 345.6">
  <!-- Generator: Adobe Illustrator 29.5.1, SVG Export Plug-In . SVG Version: 2.1.0 Build 141)  -->
  <defs>
    <style>
      .st0 {
        fill: #d3d3d3;
      }

      .st0, .st1, .st2 {
        stroke: #fff;
        stroke-width: .1px;
      }

      .st3 {
        stroke: #85b928;
        stroke-dasharray: 1;
        stroke-linecap: round;
        stroke-width: .2px;
      }

      .st3, .st2 {
        fill: #fff;
      }

      .st1 {
        fill: #85b928;
      }
    </style>
  </defs>
  <g id="figure_1">
    <g id="axes_1">
      <g id="patch_2">
        <path class="st0" d="M248.4,153.7c4.1-.3,8-1.5,11.7-3.3,3.6-1.8,6.9-4.3,9.6-7.4,2.7-3.1,4.8-6.6,6.1-10.5s2-7.9,1.8-12c-.2-4.1-1.1-8.1-2.8-11.8-1.7-3.7-4.1-7.1-7-9.9-2.9-2.8-6.4-5.1-10.2-6.6-3.8-1.5-7.8-2.3-11.9-2.3s-8.1.8-11.9,2.3c-3.8,1.5-7.2,3.8-10.2,6.6-2.9,2.8-5.3,6.2-7,9.9-1.7,3.7-2.6,7.7-2.8,11.8-.2,4.1.4,8.1,1.8,12,1.4,3.8,3.4,7.4,6.1,10.5,2.7,3.1,6,5.6,9.6,7.4s7.6,3,11.7,3.3l.9-10.6c-2.7-.2-5.4-1-7.8-2.2-2.4-1.2-4.6-2.9-6.4-4.9s-3.2-4.4-4.1-7c-.9-2.6-1.3-5.3-1.2-8,.1-2.7.8-5.4,1.9-7.9,1.1-2.5,2.7-4.7,4.7-6.6,2-1.9,4.3-3.4,6.8-4.4,2.5-1,5.2-1.5,7.9-1.5s5.4.5,7.9,1.5c2.5,1,4.8,2.5,6.8,4.4,2,1.9,3.5,4.1,4.7,6.6s1.8,5.2,1.9,7.9c.1,2.7-.3,5.4-1.2,8-.9,2.6-2.3,4.9-4.1,7-1.8,2-4,3.7-6.4,4.9-2.4,1.2-5.1,2-7.8,2.2l.9,10.6Z"/>
      </g>
      <g id="patch_3">
        <path class="st1" d="M243,153.7c.9,0,1.8.1,2.7.1.9,0,1.8,0,2.7-.1l-.9-10.6c-.6,0-1.2,0-1.8,0-.6,0-1.2,0-1.8,0l-.9,10.6Z"/>
      </g>
      <g id="patch_5">
        <path class="st0" d="M219.2,185.8c.4.2.8.3,1.3.5.4.2.8.3,1.3.5l3.7-10c-.4-.1-.7-.3-1.1-.4-.4-.1-.7-.3-1.1-.4l-4.1,9.8Z"/>
      </g>
      <g id="patch_6">
        <path class="st1" d="M221.7,186.8c8.1,3,16.7,4.4,25.3,4.3,8.6-.2,17.2-2,25.1-5.3l-4.1-9.8c-6.7,2.8-14,4.3-21.3,4.4-7.3.1-14.6-1.1-21.4-3.6l-3.7,10Z"/>
      </g>
      <g id="patch_8">
        <path class="st0" d="M205,220.3c0,0,.2,0,.3.1,0,0,.2,0,.3.1l4-9.9c0,0-.2,0-.3-.1,0,0-.2,0-.3-.1l-4.1,9.8Z"/>
      </g>
      <g id="patch_9">
        <path class="st1" d="M205.6,220.5c12.8,5.2,26.6,7.9,40.5,7.9s27.6-2.8,40.4-8.1l-4.1-9.8c-11.5,4.8-23.9,7.3-36.4,7.3-12.5,0-24.9-2.4-36.4-7.1l-4,9.9Z"/>
      </g>
      <g id="text_1">
        <g>
          <path id="ArialMT-32" d="M241.3,117.4v.4h-2.4c0-.1,0-.2,0-.3,0-.2.2-.3.3-.5.1-.2.3-.3.6-.5.4-.3.7-.6.8-.8.1-.2.2-.4.2-.5s0-.3-.2-.4c-.1-.1-.3-.2-.5-.2s-.4,0-.5.2c-.1.1-.2.3-.2.5h-.5c0-.4.1-.6.3-.8.2-.2.5-.3.8-.3s.6,0,.8.3c.2.2.3.4.3.7s0,.3,0,.4c0,.1-.2.3-.3.4s-.4.4-.7.6c-.3.2-.4.4-.5.5,0,0-.1.2-.2.2h1.8Z"/>
          <path id="ArialMT-35" d="M241.7,116.9h.5c0,.2.1.4.2.5.1.1.3.2.5.2s.4,0,.5-.2c.1-.2.2-.4.2-.6s0-.4-.2-.6c-.1-.1-.3-.2-.6-.2s-.3,0-.4,0c-.1,0-.2.1-.3.3h-.4c0,0,.3-1.9.3-1.9h1.8v.4h-1.4l-.2,1c.2-.2.4-.2.7-.2s.6.1.8.3c.2.2.3.5.3.8s0,.6-.3.8c-.2.3-.5.4-.9.4s-.6,0-.8-.3c-.2-.2-.3-.4-.4-.7Z"/>
          <path id="ArialMT-34" d="M245.9,117.9v-.9h-1.6v-.4l1.6-2.3h.4v2.3h.5v.4h-.5v.9h-.4ZM245.9,116.6v-1.6l-1.1,1.6h1.1Z"/>
          <path id="ArialMT-36" d="M249.6,115.2h-.4c0-.1,0-.3-.2-.3-.1-.1-.3-.2-.4-.2s-.3,0-.4.1c-.1.1-.2.2-.3.4,0,.2-.1.5-.1.8.1-.2.2-.3.4-.4s.3-.1.5-.1c.3,0,.5.1.7.3.2.2.3.5.3.8s0,.4-.1.6c0,.2-.2.3-.4.4-.2.1-.4.2-.6.2-.4,0-.7-.1-.9-.4-.2-.3-.3-.7-.3-1.3s.1-1.2.4-1.5c.2-.3.5-.4.9-.4s.5,0,.7.2c.2.2.3.4.3.7ZM247.8,116.7c0,.2,0,.3,0,.4,0,.1.2.2.3.3.1,0,.2.1.4.1.2,0,.3,0,.5-.2.1-.2.2-.4.2-.6s0-.4-.2-.6c-.1-.1-.3-.2-.5-.2s-.4,0-.5.2c-.1.1-.2.3-.2.6Z"/>
          <path id="ArialMT-361" data-name="ArialMT-36" d="M252.4,115.2h-.4c0-.1,0-.3-.2-.3-.1-.1-.3-.2-.4-.2s-.3,0-.4.1c-.1.1-.2.2-.3.4,0,.2-.1.5-.1.8.1-.2.2-.3.4-.4s.3-.1.5-.1c.3,0,.5.1.7.3.2.2.3.5.3.8s0,.4-.1.6c0,.2-.2.3-.4.4-.2.1-.4.2-.6.2-.4,0-.7-.1-.9-.4-.2-.3-.3-.7-.3-1.3s.1-1.2.4-1.5c.2-.3.5-.4.9-.4s.5,0,.7.2c.2.2.3.4.3.7ZM250.6,116.7c0,.2,0,.3,0,.4,0,.1.2.2.3.3.1,0,.2.1.4.1.2,0,.3,0,.5-.2.1-.2.2-.4.2-.6s0-.4-.2-.6c-.1-.1-.3-.2-.5-.2s-.4,0-.5.2c-.1.1-.2.3-.2.6Z"/>
        </g>
        <g>
          <path id="ArialMT-43" d="M230.9,122h.5c0,.5-.3.8-.5,1-.3.2-.6.3-.9.3s-.7,0-.9-.2c-.2-.2-.4-.4-.6-.7-.1-.3-.2-.6-.2-1s0-.7.2-1c.1-.3.3-.5.6-.6.3-.1.6-.2.9-.2s.7,0,.9.3c.2.2.4.4.5.8h-.5c0-.2-.2-.3-.4-.5-.2-.1-.4-.2-.6-.2s-.5,0-.7.2c-.2.1-.3.3-.4.5,0,.2-.1.5-.1.7s0,.6.1.8c0,.2.2.4.4.5.2.1.4.2.6.2s.5,0,.7-.2c.2-.2.3-.4.4-.7Z"/>
          <path id="ArialMT-42" d="M231.9,123.2v-3.6h1.3c.3,0,.5,0,.7.1s.3.2.4.3c0,.2.1.3.1.5s0,.3-.1.4c0,.1-.2.2-.4.3.2,0,.4.2.5.3.1.2.2.3.2.5s0,.3-.1.5c0,.1-.2.3-.3.3s-.2.1-.4.2c-.2,0-.3,0-.6,0h-1.4ZM232.4,121.2h.8c.2,0,.4,0,.5,0,.1,0,.2,0,.3-.2,0,0,0-.2,0-.3s0-.2,0-.3c0,0-.1-.2-.2-.2-.1,0-.3,0-.5,0h-.7v1.1ZM232.4,122.8h.9c.2,0,.3,0,.3,0,.1,0,.2,0,.3,0,0,0,.1-.1.2-.2,0,0,0-.2,0-.3s0-.2-.1-.3c0,0-.2-.2-.3-.2-.1,0-.3,0-.5,0h-.8v1.2Z"/>
          <path id="ArialMT-4d" d="M235.2,123.2v-3.6h.7l.8,2.5c0,.2.1.4.2.5,0-.1.1-.3.2-.6l.9-2.5h.6v3.6h-.5v-3l-1,3h-.4l-1-3v3h-.5Z"/>
          <path id="ArialMT-2d" d="M239.2,122.2v-.4h1.4v.4h-1.4Z"/>
          <path id="ArialMT-63" d="M242.7,122.3h.4c0,.4-.2.6-.4.8-.2.2-.4.3-.7.3s-.6-.1-.9-.3c-.2-.2-.3-.6-.3-1s0-.5.1-.7c0-.2.2-.4.4-.5.2-.1.4-.2.6-.2s.5,0,.7.2c.2.1.3.3.3.6h-.4c0-.1-.1-.2-.2-.3-.1,0-.2-.1-.4-.1-.2,0-.4,0-.5.2-.1.2-.2.4-.2.8s0,.6.2.8c.1.2.3.2.5.2s.3,0,.4-.2c.1-.1.2-.3.2-.5Z"/>
          <path id="ArialMT-6f" d="M243.4,121.9c0-.5.1-.8.4-1.1.2-.2.5-.3.8-.3s.6.1.9.4c.2.2.3.6.3,1s0,.6-.2.8c-.1.2-.2.3-.4.4-.2.1-.4.2-.6.2-.4,0-.7-.1-.9-.3-.2-.2-.3-.6-.3-1ZM243.8,121.9c0,.3,0,.6.2.7.1.2.3.2.5.2s.4,0,.5-.2c.1-.2.2-.4.2-.8s0-.6-.2-.7-.3-.2-.5-.2-.4,0-.5.2c-.1.2-.2.4-.2.7Z"/>
          <path id="ArialMT-6e" d="M246.3,123.2v-2.6h.4v.4c.2-.3.5-.4.8-.4s.3,0,.4,0,.2.1.3.2.1.2.1.3c0,0,0,.2,0,.4v1.6h-.4v-1.6c0-.2,0-.3,0-.4,0,0,0-.2-.2-.2,0,0-.2,0-.3,0-.2,0-.3,0-.5.2s-.2.3-.2.7v1.4h-.4Z"/>
          <path id="ArialMT-74" d="M250,122.8v.4c0,0-.2,0-.3,0-.2,0-.3,0-.4,0,0,0-.1-.1-.2-.2,0,0,0-.3,0-.5v-1.5h-.3v-.3h.3v-.6l.4-.3v.9h.4v.3h-.4v1.5c0,.1,0,.2,0,.2,0,0,0,0,0,0,0,0,0,0,.2,0s.1,0,.2,0Z"/>
          <path id="ArialMT-61" d="M252.2,122.9c-.2.1-.3.2-.5.3-.2,0-.3,0-.5,0-.3,0-.5,0-.7-.2s-.2-.3-.2-.5,0-.2,0-.3c0-.1.1-.2.2-.3s.2-.1.3-.1c0,0,.2,0,.4,0,.4,0,.6,0,.8-.2,0,0,0,0,0-.1,0-.2,0-.3-.1-.4-.1,0-.3-.1-.5-.1s-.4,0-.5.1-.2.2-.2.4h-.4c0-.2.1-.4.2-.5,0-.1.2-.2.4-.3.2,0,.4,0,.6,0s.4,0,.5,0c.1,0,.2.1.3.2,0,0,.1.2.1.3,0,0,0,.2,0,.4v.6c0,.4,0,.7,0,.8,0,.1,0,.2.1.3h-.5c0,0,0-.2,0-.3ZM252.1,121.9c-.2,0-.4.1-.7.2-.2,0-.3,0-.4,0,0,0-.1,0-.2.1,0,0,0,.1,0,.2,0,.1,0,.2.1.3,0,0,.2.1.4.1s.3,0,.5-.1c.1,0,.2-.2.3-.3,0,0,0-.2,0-.4v-.2Z"/>
          <path id="ArialMT-69" d="M253.3,120.2v-.5h.4v.5h-.4ZM253.3,123.2v-2.6h.4v2.6h-.4Z"/>
          <path id="ArialMT-6e1" data-name="ArialMT-6e" d="M254.4,123.2v-2.6h.4v.4c.2-.3.5-.4.8-.4s.3,0,.4,0,.2.1.3.2.1.2.1.3c0,0,0,.2,0,.4v1.6h-.4v-1.6c0-.2,0-.3,0-.4,0,0,0-.2-.2-.2,0,0-.2,0-.3,0-.2,0-.3,0-.5.2s-.2.3-.2.7v1.4h-.4Z"/>
          <path id="ArialMT-691" data-name="ArialMT-69" d="M257.1,120.2v-.5h.4v.5h-.4ZM257.1,123.2v-2.6h.4v2.6h-.4Z"/>
          <path id="ArialMT-6e2" data-name="ArialMT-6e" d="M258.3,123.2v-2.6h.4v.4c.2-.3.5-.4.8-.4s.3,0,.4,0,.2.1.3.2.1.2.1.3c0,0,0,.2,0,.4v1.6h-.4v-1.6c0-.2,0-.3,0-.4,0,0,0-.2-.2-.2,0,0-.2,0-.3,0-.2,0-.3,0-.5.2s-.2.3-.2.7v1.4h-.4Z"/>
          <path id="ArialMT-67" d="M261,123.4h.4c0,.2,0,.3.1.4.1,0,.3.1.4.1s.4,0,.5-.1c.1,0,.2-.2.2-.3,0,0,0-.3,0-.6-.2.2-.4.3-.7.3s-.6-.1-.8-.4c-.2-.3-.3-.6-.3-.9s0-.5.1-.7c0-.2.2-.4.4-.5.2-.1.4-.2.6-.2s.6.1.8.4v-.3h.4v2.2c0,.4,0,.7-.1.9,0,.2-.2.3-.4.4-.2,0-.4.1-.7.1s-.6,0-.7-.2-.3-.3-.3-.6ZM261.3,121.9c0,.3,0,.6.2.7.1.2.3.2.5.2s.4,0,.5-.2c.1-.2.2-.4.2-.7s0-.6-.2-.7c-.1-.2-.3-.2-.5-.2s-.4,0-.5.2c-.1.2-.2.4-.2.7Z"/>
        </g>
        <g>
          <path id="ArialMT-70" d="M237.1,129.6v-3.6h.4v.3c0-.1.2-.2.3-.3.1,0,.3,0,.4,0s.4,0,.6.2.3.3.4.5c0,.2.1.4.1.7s0,.5-.1.7c0,.2-.2.4-.4.5-.2.1-.4.2-.6.2s-.3,0-.4,0c-.1,0-.2-.1-.3-.2v1.3h-.4ZM237.5,127.3c0,.3,0,.6.2.7.1.2.3.2.5.2s.4,0,.5-.2c.1-.2.2-.4.2-.8s0-.6-.2-.7c-.1-.2-.3-.2-.5-.2s-.4,0-.5.3c-.1.2-.2.4-.2.8Z"/>
          <path id="ArialMT-72" d="M239.9,128.6v-2.6h.4v.4c.1-.2.2-.3.3-.4,0,0,.2,0,.3,0,.1,0,.3,0,.5.1l-.2.4c-.1,0-.2,0-.3,0s-.2,0-.3,0-.1.1-.2.2c0,.2,0,.3,0,.5v1.4h-.4Z"/>
          <path id="ArialMT-6f1" data-name="ArialMT-6f" d="M241.4,127.3c0-.5.1-.8.4-1.1.2-.2.5-.3.8-.3s.6.1.9.4c.2.2.3.6.3,1s0,.6-.2.8c-.1.2-.2.3-.4.4-.2.1-.4.2-.6.2-.4,0-.7-.1-.9-.3-.2-.2-.3-.6-.3-1ZM241.9,127.3c0,.3,0,.6.2.7.1.2.3.2.5.2s.4,0,.5-.2c.1-.2.2-.4.2-.8s0-.6-.2-.7-.3-.2-.5-.2-.4,0-.5.2c-.1.2-.2.4-.2.7Z"/>
          <path id="ArialMT-741" data-name="ArialMT-74" d="M245.3,128.2v.4c0,0-.2,0-.3,0-.2,0-.3,0-.4,0,0,0-.1-.1-.2-.2,0,0,0-.3,0-.5v-1.5h-.3v-.3h.3v-.6l.4-.3v.9h.4v.3h-.4v1.5c0,.1,0,.2,0,.2,0,0,0,0,0,0,0,0,0,0,.2,0s.1,0,.2,0Z"/>
          <path id="ArialMT-65" d="M247.5,127.7h.5c0,.3-.2.5-.4.7-.2.1-.4.2-.7.2s-.7-.1-.9-.4c-.2-.2-.3-.6-.3-1s.1-.8.3-1c.2-.2.5-.4.9-.4s.6.1.9.4.3.6.3,1,0,0,0,.1h-1.9c0,.3,0,.5.2.7.1.2.3.2.5.2s.3,0,.4-.1c.1,0,.2-.2.3-.4ZM246.1,127h1.4c0-.2,0-.4-.2-.5-.1-.2-.3-.3-.5-.3s-.4,0-.5.2-.2.3-.2.5Z"/>
          <path id="ArialMT-692" data-name="ArialMT-69" d="M248.5,125.5v-.5h.4v.5h-.4ZM248.5,128.6v-2.6h.4v2.6h-.4Z"/>
          <path id="ArialMT-6e3" data-name="ArialMT-6e" d="M249.6,128.6v-2.6h.4v.4c.2-.3.5-.4.8-.4s.3,0,.4,0,.2.1.3.2.1.2.1.3c0,0,0,.2,0,.4v1.6h-.4v-1.6c0-.2,0-.3,0-.4,0,0,0-.2-.2-.2,0,0-.2,0-.3,0-.2,0-.3,0-.5.2s-.2.3-.2.7v1.4h-.4Z"/>
          <path id="ArialMT-73" d="M252.3,127.8h.4c0,.1,0,.2.2.3.1,0,.3.1.5.1s.4,0,.4-.1c0,0,.1-.2.1-.3s0-.2-.1-.2c0,0-.2,0-.4-.1-.3,0-.5-.2-.7-.2s-.2-.1-.3-.2c0-.1,0-.2,0-.3s0-.2,0-.3c0,0,.1-.2.2-.2,0,0,.2,0,.3-.1.1,0,.2,0,.4,0,.2,0,.4,0,.5,0,.2,0,.3.1.3.2,0,.1.1.2.2.4h-.4c0,0,0-.2-.2-.3,0,0-.2-.1-.4-.1s-.3,0-.4.1c0,0-.1.1-.1.2s0,.1,0,.2c0,0,0,0,.2.1,0,0,.2,0,.4.1.3,0,.5.2.7.2.1,0,.2.1.3.2,0,.1.1.2.1.4s0,.3-.1.4c0,.1-.2.2-.4.3-.2,0-.3.1-.5.1-.3,0-.6,0-.8-.2-.2-.1-.3-.3-.3-.6Z"/>
        </g>
      </g>
      <g id="text_2">
        <g>
          <path id="ArialMT-362" data-name="ArialMT-36" d="M244,160.4h-.4c0-.1,0-.3-.2-.3-.1-.1-.3-.2-.4-.2s-.3,0-.4.1c-.1.1-.2.2-.3.4,0,.2-.1.5-.1.8.1-.2.2-.3.4-.4s.3-.1.5-.1c.3,0,.5.1.7.3.2.2.3.5.3.8s0,.4-.1.6c0,.2-.2.3-.4.4-.2.1-.4.2-.6.2-.4,0-.7-.1-.9-.4-.2-.3-.3-.7-.3-1.3s.1-1.2.4-1.5c.2-.3.5-.4.9-.4s.5,0,.7.2c.2.2.3.4.3.7ZM242.2,162c0,.2,0,.3,0,.4,0,.1.2.2.3.3.1,0,.2.1.4.1.2,0,.3,0,.5-.2.1-.2.2-.4.2-.6s0-.4-.2-.6c-.1-.1-.3-.2-.5-.2s-.4,0-.5.2c-.1.1-.2.3-.2.6Z"/>
          <path id="ArialMT-38" d="M245.2,161.2c-.2,0-.3-.2-.4-.3,0-.1-.1-.3-.1-.4,0-.3,0-.5.3-.7.2-.2.4-.3.7-.3s.6,0,.8.3c.2.2.3.4.3.7s0,.3-.1.4c0,.1-.2.2-.4.3.2,0,.4.2.5.3.1.2.2.3.2.6s-.1.6-.3.8c-.2.2-.5.3-.9.3s-.6-.1-.9-.3c-.2-.2-.3-.5-.3-.8s0-.4.2-.6c.1-.2.3-.3.5-.3ZM245.1,160.5c0,.2,0,.3.2.4.1.1.3.2.4.2s.3,0,.4-.2c.1-.1.2-.2.2-.4s0-.3-.2-.4c-.1-.1-.3-.2-.4-.2s-.3,0-.4.2c-.1.1-.2.2-.2.4ZM245,162.1c0,.1,0,.2,0,.4s.1.2.3.3c.1,0,.2,0,.4,0,.2,0,.4,0,.5-.2.1-.1.2-.3.2-.5s0-.4-.2-.5c-.1-.1-.3-.2-.5-.2s-.4,0-.5.2c-.1.1-.2.3-.2.5Z"/>
          <path id="ArialMT-33" d="M247.3,162.2h.4c0,.2.1.4.3.5.1.1.3.2.4.2s.4,0,.5-.2c.1-.1.2-.3.2-.5s0-.4-.2-.5c-.1-.1-.3-.2-.5-.2s-.2,0-.3,0v-.4c0,0,.1,0,.1,0,.2,0,.4,0,.5-.1.2,0,.2-.2.2-.5s0-.3-.2-.4c-.1-.1-.2-.2-.4-.2s-.3,0-.4.2c-.1.1-.2.3-.2.5h-.4c0-.4.2-.6.4-.8.2-.2.4-.2.7-.2s.4,0,.5.1c.2,0,.3.2.4.3,0,.1.1.3.1.5s0,.3-.1.4c0,.1-.2.2-.4.3.2,0,.4.1.5.3.1.2.2.3.2.6s-.1.6-.3.8c-.2.2-.5.3-.9.3s-.6,0-.8-.3c-.2-.2-.3-.4-.4-.7Z"/>
        </g>
        <g>
          <path id="ArialMT-4d1" data-name="ArialMT-4d" d="M234,168.4v-3.6h.7l.8,2.5c0,.2.1.4.2.5,0-.1.1-.3.2-.6l.9-2.5h.6v3.6h-.5v-3l-1,3h-.4l-1-3v3h-.5Z"/>
          <path id="ArialMT-4d2" data-name="ArialMT-4d" d="M238.2,168.4v-3.6h.7l.8,2.5c0,.2.1.4.2.5,0-.1.1-.3.2-.6l.9-2.5h.6v3.6h-.5v-3l-1,3h-.4l-1-3v3h-.5Z"/>
          <path id="ArialMT-48" d="M242.4,168.4v-3.6h.5v1.5h1.9v-1.5h.5v3.6h-.5v-1.7h-1.9v1.7h-.5Z"/>
          <path id="ArialMT-20" d="M245.6,168.4"/>
          <path id="ArialMT-6d" d="M247.3,168.4v-2.6h.4v.4c0-.1.2-.2.3-.3.1,0,.3-.1.5-.1s.3,0,.5.1.2.2.3.3c.2-.3.5-.5.8-.5s.5,0,.6.2c.1.1.2.4.2.7v1.8h-.4v-1.6c0-.2,0-.3,0-.4,0,0,0-.1-.2-.2,0,0-.2,0-.3,0-.2,0-.3,0-.5.2-.1.1-.2.3-.2.6v1.5h-.4v-1.7c0-.2,0-.3-.1-.4,0,0-.2-.1-.4-.1s-.2,0-.3,0c-.1,0-.2.2-.2.3,0,.1,0,.3,0,.5v1.3h-.4Z"/>
          <path id="ArialMT-6f2" data-name="ArialMT-6f" d="M251.3,167.1c0-.5.1-.8.4-1.1.2-.2.5-.3.8-.3s.6.1.9.4c.2.2.3.6.3,1s0,.6-.2.8c-.1.2-.2.3-.4.4-.2.1-.4.2-.6.2-.4,0-.7-.1-.9-.3-.2-.2-.3-.6-.3-1ZM251.7,167.1c0,.3,0,.6.2.7.1.2.3.2.5.2s.4,0,.5-.2c.1-.2.2-.4.2-.8s0-.6-.2-.7-.3-.2-.5-.2-.4,0-.5.2c-.1.2-.2.4-.2.7Z"/>
          <path id="ArialMT-742" data-name="ArialMT-74" d="M255.2,168v.4c0,0-.2,0-.3,0-.2,0-.3,0-.4,0,0,0-.1-.1-.2-.2,0,0,0-.3,0-.5v-1.5h-.3v-.3h.3v-.6l.4-.3v.9h.4v.3h-.4v1.5c0,.1,0,.2,0,.2,0,0,0,0,0,0,0,0,0,0,.2,0s.1,0,.2,0Z"/>
          <path id="ArialMT-693" data-name="ArialMT-69" d="M255.6,165.4v-.5h.4v.5h-.4ZM255.6,168.4v-2.6h.4v2.6h-.4Z"/>
          <path id="ArialMT-66" d="M256.8,168.4v-2.3h-.4v-.3h.4v-.3c0-.2,0-.3,0-.4,0-.1.1-.2.2-.3.1,0,.3-.1.4-.1s.3,0,.4,0v.4c-.2,0-.2,0-.3,0-.1,0-.2,0-.3,0,0,0,0,.2,0,.3v.2h.5v.3h-.5v2.3h-.4Z"/>
        </g>
      </g>
      <g id="text_3">
        <g>
          <path id="ArialMT-363" data-name="ArialMT-36" d="M244,197.7h-.4c0-.1,0-.3-.2-.3-.1-.1-.3-.2-.4-.2s-.3,0-.4.1c-.1.1-.2.2-.3.4,0,.2-.1.5-.1.8.1-.2.2-.3.4-.4s.3-.1.5-.1c.3,0,.5.1.7.3.2.2.3.5.3.8s0,.4-.1.6c0,.2-.2.3-.4.4-.2.1-.4.2-.6.2-.4,0-.7-.1-.9-.4-.2-.3-.3-.7-.3-1.3s.1-1.2.4-1.5c.2-.3.5-.4.9-.4s.5,0,.7.2c.2.2.3.4.3.7ZM242.2,199.2c0,.2,0,.3,0,.4,0,.1.2.2.3.3.1,0,.2.1.4.1.2,0,.3,0,.5-.2.1-.2.2-.4.2-.6s0-.4-.2-.6c-.1-.1-.3-.2-.5-.2s-.4,0-.5.2c-.1.1-.2.3-.2.6Z"/>
          <path id="ArialMT-341" data-name="ArialMT-34" d="M245.9,200.4v-.9h-1.6v-.4l1.6-2.3h.4v2.3h.5v.4h-.5v.9h-.4ZM245.9,199.1v-1.6l-1.1,1.6h1.1Z"/>
          <path id="ArialMT-39" d="M247.4,199.6h.4c0,.2.1.3.2.4.1,0,.2.1.4.1s.3,0,.4,0c.1,0,.2-.1.3-.2,0-.1.1-.2.2-.4,0-.2,0-.4,0-.5s0,0,0,0c0,.1-.2.3-.4.3-.2,0-.3.1-.5.1-.3,0-.5-.1-.8-.3-.2-.2-.3-.5-.3-.9s.1-.7.3-.9c.2-.2.5-.3.8-.3s.4,0,.6.2c.2.1.3.3.4.5.1.2.2.6.2,1s0,.8-.1,1.1c0,.3-.2.5-.4.6-.2.1-.4.2-.7.2s-.5,0-.7-.2c-.2-.2-.3-.4-.3-.7ZM249.2,198c0-.3,0-.5-.2-.6-.1-.1-.3-.2-.5-.2s-.4,0-.5.2c-.1.2-.2.4-.2.6s0,.4.2.6c.1.1.3.2.5.2s.4,0,.5-.2c.1-.1.2-.3.2-.6Z"/>
        </g>
        <g>
          <path id="ArialMT-41" d="M230.7,205.7l1.4-3.6h.5l1.5,3.6h-.5l-.4-1.1h-1.5l-.4,1.1h-.5ZM231.7,204.2h1.2l-.4-1c-.1-.3-.2-.5-.3-.7,0,.2-.1.5-.2.7l-.4,1.1Z"/>
          <path id="ArialMT-411" data-name="ArialMT-41" d="M234,205.7l1.4-3.6h.5l1.5,3.6h-.5l-.4-1.1h-1.5l-.4,1.1h-.5ZM235.1,204.2h1.2l-.4-1c-.1-.3-.2-.5-.3-.7,0,.2-.1.5-.2.7l-.4,1.1Z"/>
          <path id="ArialMT-31" d="M239.2,205.7h-.4v-2.8c-.1.1-.2.2-.4.3s-.3.2-.5.2v-.4c.2-.1.5-.3.6-.4.2-.2.3-.3.4-.5h.3v3.6Z"/>
          <path id="ArialMT-30" d="M240.4,203.9c0-.4,0-.8.1-1,0-.3.2-.5.4-.6.2-.1.4-.2.6-.2s.4,0,.5.1c.1,0,.3.2.4.3,0,.1.2.3.2.5,0,.2,0,.5,0,.8s0,.8-.1,1c0,.3-.2.5-.4.6-.2.1-.4.2-.7.2s-.6-.1-.8-.4c-.2-.3-.4-.8-.4-1.5ZM240.8,203.9c0,.6,0,1,.2,1.2.1.2.3.3.5.3s.4,0,.5-.3.2-.6.2-1.2,0-1-.2-1.2c-.1-.2-.3-.3-.5-.3s-.4,0-.5.3c-.2.2-.2.6-.2,1.2Z"/>
          <path id="ArialMT-201" data-name="ArialMT-20" d="M242.9,205.7"/>
          <path id="ArialMT-64" d="M246.3,205.7v-.3c-.2.3-.4.4-.7.4s-.4,0-.6-.2-.3-.3-.4-.5c0-.2-.1-.4-.1-.7s0-.5.1-.7c0-.2.2-.4.4-.5.2-.1.4-.2.6-.2s.3,0,.4,0c.1,0,.2.2.3.3v-1.3h.4v3.6h-.4ZM244.9,204.4c0,.3,0,.6.2.7.1.2.3.2.5.2s.4,0,.5-.2c.1-.2.2-.4.2-.7s0-.6-.2-.8c-.1-.2-.3-.2-.5-.2s-.4,0-.5.2c-.1.2-.2.4-.2.8Z"/>
          <path id="ArialMT-6f3" data-name="ArialMT-6f" d="M247.3,204.4c0-.5.1-.8.4-1.1.2-.2.5-.3.8-.3s.6.1.9.4c.2.2.3.6.3,1s0,.6-.2.8c-.1.2-.2.3-.4.4-.2.1-.4.2-.6.2-.4,0-.7-.1-.9-.3-.2-.2-.3-.6-.3-1ZM247.7,204.4c0,.3,0,.6.2.7.1.2.3.2.5.2s.4,0,.5-.2c.1-.2.2-.4.2-.8s0-.6-.2-.7-.3-.2-.5-.2-.4,0-.5.2c-.1.2-.2.4-.2.7Z"/>
          <path id="ArialMT-6d1" data-name="ArialMT-6d" d="M250.2,205.7v-2.6h.4v.4c0-.1.2-.2.3-.3.1,0,.3-.1.5-.1s.3,0,.5.1.2.2.3.3c.2-.3.5-.5.8-.5s.5,0,.6.2c.1.1.2.4.2.7v1.8h-.4v-1.6c0-.2,0-.3,0-.4,0,0,0-.1-.2-.2,0,0-.2,0-.3,0-.2,0-.3,0-.5.2-.1.1-.2.3-.2.6v1.5h-.4v-1.7c0-.2,0-.3-.1-.4,0,0-.2-.1-.4-.1s-.2,0-.3,0c-.1,0-.2.2-.2.3,0,.1,0,.3,0,.5v1.3h-.4Z"/>
          <path id="ArialMT-611" data-name="ArialMT-61" d="M256.1,205.4c-.2.1-.3.2-.5.3-.2,0-.3,0-.5,0-.3,0-.5,0-.7-.2s-.2-.3-.2-.5,0-.2,0-.3c0-.1.1-.2.2-.3s.2-.1.3-.1c0,0,.2,0,.4,0,.4,0,.6,0,.8-.2,0,0,0,0,0-.1,0-.2,0-.3-.1-.4-.1,0-.3-.1-.5-.1s-.4,0-.5.1-.2.2-.2.4h-.4c0-.2.1-.4.2-.5,0-.1.2-.2.4-.3.2,0,.4,0,.6,0s.4,0,.5,0c.1,0,.2.1.3.2,0,0,.1.2.1.3,0,0,0,.2,0,.4v.6c0,.4,0,.7,0,.8,0,.1,0,.2.1.3h-.5c0,0,0-.2,0-.3ZM256,204.4c-.2,0-.4.1-.7.2-.2,0-.3,0-.4,0,0,0-.1,0-.2.1,0,0,0,.1,0,.2,0,.1,0,.2.1.3,0,0,.2.1.4.1s.3,0,.5-.1c.1,0,.2-.2.3-.3,0,0,0-.2,0-.4v-.2Z"/>
          <path id="ArialMT-694" data-name="ArialMT-69" d="M257.2,202.6v-.5h.4v.5h-.4ZM257.2,205.7v-2.6h.4v2.6h-.4Z"/>
          <path id="ArialMT-6e4" data-name="ArialMT-6e" d="M258.3,205.7v-2.6h.4v.4c.2-.3.5-.4.8-.4s.3,0,.4,0,.2.1.3.2.1.2.1.3c0,0,0,.2,0,.4v1.6h-.4v-1.6c0-.2,0-.3,0-.4,0,0,0-.2-.2-.2,0,0-.2,0-.3,0-.2,0-.3,0-.5.2s-.2.3-.2.7v1.4h-.4Z"/>
        </g>
      </g>
      <g id="text_4">
        <g>
          <path id="ArialMT-364" data-name="ArialMT-36" d="M244,235h-.4c0-.1,0-.3-.2-.3-.1-.1-.3-.2-.4-.2s-.3,0-.4.1c-.1.1-.2.2-.3.4,0,.2-.1.5-.1.8.1-.2.2-.3.4-.4s.3-.1.5-.1c.3,0,.5.1.7.3.2.2.3.5.3.8s0,.4-.1.6c0,.2-.2.3-.4.4-.2.1-.4.2-.6.2-.4,0-.7-.1-.9-.4-.2-.3-.3-.7-.3-1.3s.1-1.2.4-1.5c.2-.3.5-.4.9-.4s.5,0,.7.2c.2.2.3.4.3.7ZM242.2,236.5c0,.2,0,.3,0,.4,0,.1.2.2.3.3.1,0,.2.1.4.1.2,0,.3,0,.5-.2.1-.2.2-.4.2-.6s0-.4-.2-.6c-.1-.1-.3-.2-.5-.2s-.4,0-.5.2c-.1.1-.2.3-.2.6Z"/>
          <path id="ArialMT-342" data-name="ArialMT-34" d="M245.9,237.7v-.9h-1.6v-.4l1.6-2.3h.4v2.3h.5v.4h-.5v.9h-.4ZM245.9,236.4v-1.6l-1.1,1.6h1.1Z"/>
          <path id="ArialMT-343" data-name="ArialMT-34" d="M248.7,237.7v-.9h-1.6v-.4l1.6-2.3h.4v2.3h.5v.4h-.5v.9h-.4ZM248.7,236.4v-1.6l-1.1,1.6h1.1Z"/>
        </g>
        <g>
          <path id="ArialMT-52" d="M235,243v-3.6h1.6c.3,0,.6,0,.7,0,.2,0,.3.2.4.3,0,.2.1.3.1.5s0,.5-.2.6c-.2.2-.4.3-.8.3.1,0,.2.1.3.2.1.1.3.3.4.5l.6,1h-.6l-.5-.7c-.1-.2-.3-.4-.3-.5,0-.1-.2-.2-.2-.2,0,0-.1,0-.2,0,0,0-.1,0-.3,0h-.6v1.6h-.5ZM235.5,241h1c.2,0,.4,0,.5,0,.1,0,.2-.1.3-.2s0-.2,0-.3c0-.2,0-.3-.2-.4-.1-.1-.3-.2-.6-.2h-1.1v1.2Z"/>
          <path id="ArialMT-45" d="M238.6,243v-3.6h2.6v.4h-2.1v1.1h2v.4h-2v1.2h2.2v.4h-2.7Z"/>
          <path id="ArialMT-46" d="M241.9,243v-3.6h2.4v.4h-1.9v1.1h1.7v.4h-1.7v1.6h-.5Z"/>
          <path id="ArialMT-202" data-name="ArialMT-20" d="M244.6,243"/>
          <path id="ArialMT-6d2" data-name="ArialMT-6d" d="M246.3,243v-2.6h.4v.4c0-.1.2-.2.3-.3.1,0,.3-.1.5-.1s.3,0,.5.1.2.2.3.3c.2-.3.5-.5.8-.5s.5,0,.6.2c.1.1.2.4.2.7v1.8h-.4v-1.6c0-.2,0-.3,0-.4,0,0,0-.1-.2-.2,0,0-.2,0-.3,0-.2,0-.3,0-.5.2-.1.1-.2.3-.2.6v1.5h-.4v-1.7c0-.2,0-.3-.1-.4,0,0-.2-.1-.4-.1s-.2,0-.3,0c-.1,0-.2.2-.2.3,0,.1,0,.3,0,.5v1.3h-.4Z"/>
          <path id="ArialMT-6f4" data-name="ArialMT-6f" d="M250.3,241.7c0-.5.1-.8.4-1.1.2-.2.5-.3.8-.3s.6.1.9.4c.2.2.3.6.3,1s0,.6-.2.8c-.1.2-.2.3-.4.4-.2.1-.4.2-.6.2-.4,0-.7-.1-.9-.3-.2-.2-.3-.6-.3-1ZM250.8,241.7c0,.3,0,.6.2.7.1.2.3.2.5.2s.4,0,.5-.2c.1-.2.2-.4.2-.8s0-.6-.2-.7-.3-.2-.5-.2-.4,0-.5.2c-.1.2-.2.4-.2.7Z"/>
          <path id="ArialMT-743" data-name="ArialMT-74" d="M254.2,242.6v.4c0,0-.2,0-.3,0-.2,0-.3,0-.4,0,0,0-.1-.1-.2-.2,0,0,0-.3,0-.5v-1.5h-.3v-.3h.3v-.6l.4-.3v.9h.4v.3h-.4v1.5c0,.1,0,.2,0,.2,0,0,0,0,0,0,0,0,0,0,.2,0s.1,0,.2,0Z"/>
          <path id="ArialMT-695" data-name="ArialMT-69" d="M254.6,239.9v-.5h.4v.5h-.4ZM254.6,243v-2.6h.4v2.6h-.4Z"/>
          <path id="ArialMT-661" data-name="ArialMT-66" d="M255.9,243v-2.3h-.4v-.3h.4v-.3c0-.2,0-.3,0-.4,0-.1.1-.2.2-.3.1,0,.3-.1.4-.1s.3,0,.4,0v.4c-.2,0-.2,0-.3,0-.1,0-.2,0-.3,0,0,0,0,.2,0,.3v.2h.5v.3h-.5v2.3h-.4Z"/>
        </g>
      </g>
    </g>
  </g>
  <path class="st2" d="M223.3,176"/>
  <path class="st2" d="M243,153.7"/>
  <path class="st3" d="M268.1,176"/>
  <path class="st3" d="M248.4,153.7"/>
  <path class="st3" d="M223.3,176"/>
  <path class="st3" d="M243,153.7"/>
  <path class="st3" d="M209,210.4"/>
  <path class="st3" d="M219.2,185.8"/>
</svg>